<?xml version="1.0" encoding="UTF-8"?>
<svg width="14px" height="14px" viewBox="0 0 14 14" version="1.1" xmlns="http://www.w3.org/2000/svg" xmlns:xlink="http://www.w3.org/1999/xlink">
    <!-- Generator: Sketch 61 (89581) - https://sketch.com -->
    <title>下拉箭头</title>
    <desc>Created with Sketch.</desc>
    <g id="下拉箭头" stroke="none" stroke-width="1" fill="none" fill-rule="evenodd">
        <rect id="Rectangle" transform="translate(7.000000, 7.000000) rotate(-270.000000) translate(-7.000000, -7.000000) " x="0" y="0" width="14" height="14"></rect>
        <path d="M1.35355339,3.64644661 L7,9.293 L12.6464466,3.64644661 C12.8417088,3.45118446 13.1582912,3.45118446 13.3535534,3.64644661 C13.5488155,3.84170876 13.5488155,4.15829124 13.3535534,4.35355339 L7.35355339,10.3535534 C7.28846601,10.4186408 7.20989859,10.4620324 7.12683782,10.4837282 L7.04261211,10.498192 L7.04261211,10.498192 L6.95738789,10.498192 C6.84397747,10.4885494 6.73322979,10.4403366 6.64644661,10.3535534 L0.646446609,4.35355339 C0.451184464,4.15829124 0.451184464,3.84170876 0.646446609,3.64644661 C0.841708755,3.45118446 1.15829124,3.45118446 1.35355339,3.64644661 Z" id="Combined-Shape" fill="#1D2221" fill-rule="nonzero"></path>
    </g>
</svg>